<svg xmlns="http://www.w3.org/2000/svg">
	<symbol viewBox="0 0 24 24" id="vertical_flip">
		<path
			fill="none"
			stroke-width="2"
			stroke-linecap="round"
			stroke-linejoin="round"
			d="m3 7l5 5l-5 5V7m18 0l-5 5l5 5V7m-9 13v2m0-8v2m0-8v2m0-8v2" >
	</symbol>
	<symbol viewBox="0 0 24 24" id="horizontal_flip">
		<path
			fill="none"
			stroke-width="2"
			stroke-linecap="round"
			stroke-linejoin="round"
			d="m17 3l-5 5l-5-5h10m0 18l-5-5l-5 5h10M4 12H2m8 0H8m8 0h-2m8 0h-2" >
	</symbol>
	<symbol viewBox="0 0 24 24" id="rotate_left">
		<path
			stroke="none"
			d="M6.56 7.98C6.1 7.52 5.31 7.6 5 8.17c-.28.51-.5 1.03-.67 1.58c-.19.63.31 1.25.96 1.25h.01c.43 0 .82-.28.94-.7c.12-.4.28-.79.48-1.17c.22-.37.15-.84-.16-1.15zM5.31 13h-.02c-.65 0-1.15.62-.96 1.25c.16.54.38 1.07.66 1.58c.31.57 1.11.66 1.57.2c.3-.31.38-.77.17-1.15c-.2-.37-.36-.76-.48-1.16a.97.97 0 0 0-.94-.72zm2.85 6.02c.51.28 1.04.5 1.59.66c.62.18 1.24-.32 1.24-.96v-.03c0-.43-.28-.82-.7-.94c-.4-.12-.78-.28-1.15-.48a.97.97 0 0 0-1.16.17l-.03.03c-.45.45-.36 1.24.21 1.55zM13 4.07v-.66c0-.89-1.08-1.34-1.71-.71L9.17 4.83c-.4.4-.4 1.04 0 1.43l2.13 2.08c.63.62 1.7.17 1.7-.72V6.09c2.84.48 5 2.94 5 5.91c0 2.73-1.82 5.02-4.32 5.75a.97.97 0 0 0-.68.94v.02c0 .65.61 1.14 1.23.96A7.976 7.976 0 0 0 20 12c0-4.08-3.05-7.44-7-7.93z" >
	</symbol>
	<symbol viewBox="0 0 24 24" id="rotate_right">
		<path
			stroke="none"
			d="M14.83 4.83L12.7 2.7c-.62-.62-1.7-.18-1.7.71v.66C7.06 4.56 4 7.92 4 12c0 3.64 2.43 6.71 5.77 7.68c.62.18 1.23-.32 1.23-.96v-.03a.97.97 0 0 0-.68-.94A5.978 5.978 0 0 1 6 12c0-2.97 2.16-5.43 5-5.91v1.53c0 .89 1.07 1.33 1.7.71l2.13-2.08a.99.99 0 0 0 0-1.42zm4.84 4.93c-.16-.55-.38-1.08-.66-1.59c-.31-.57-1.1-.66-1.56-.2l-.01.01c-.31.31-.38.78-.17 1.16c.2.37.36.76.48 1.16c.12.42.51.7.94.7h.02c.65 0 1.15-.62.96-1.24zM13 18.68v.02c0 .65.62 1.14 1.24.96c.55-.16 1.08-.38 1.59-.66c.57-.31.66-1.1.2-1.56l-.02-.02a.972.972 0 0 0-1.16-.17c-.37.21-.76.37-1.16.49c-.41.12-.69.51-.69.94zm4.44-2.65c.46.46 1.25.37 1.56-.2c.28-.51.5-1.04.67-1.59c.18-.62-.31-1.24-.96-1.24h-.02c-.44 0-.82.28-.94.7c-.12.4-.28.79-.48 1.17c-.21.38-.13.86.17 1.16z" >
	</symbol>
</svg>
